<svg xmlns="http://www.w3.org/2000/svg" viewBox="0 -816.5 5042 923" width="349.61" height="64" xmlns:c2pa="http://c2pa.org/manifest"><metadata><c2pa:manifest>AAAWgmp1bWIAAAAeanVtZGMycGEAEQAQgAAAqgA4m3EDYzJwYQAAABZcanVtYgAAAEdqdW1kYzJtYQARABCAAACqADibcQN1cm46YzJwYTo5YTBhNjFhOS0zYmRkLTRjNzItYmE5YS1kNmIzOWMwNTE2NzUAAAADl2p1bWIAAAApanVtZGMyYXMAEQAQgAAAqgA4m3EDYzJwYS5hc3NlcnRpb25zAAAAALxqdW1iAAAARGp1bWRjYm9yABEAEIAAAKoAOJtxE2MycGEuaW5ncmVkaWVudC52MwAAAAAYYzJzaE+1ojZZQQdbdEoULzYNeygAAABwY2JvcqNpZGM6Zm9ybWF0bWltYWdlL3N2Zyt4bWxqaW5zdGFuY2VJRHgseG1wOmlpZDoxYzA1M2Y3ZS0wYTU2LTQ3ZTItOThhYS02MWIzNTU2MGU2MTFscmVsYXRpb25zaGlwaHBhcmVudE9mAAAB4mp1bWIAAABBanVtZGNib3IAEQAQgAAAqgA4m3ETYzJwYS5hY3Rpb25zLnYyAAAAABhjMnNoAgZff1sO2ZTQ8FfJqb3iKQAAAZljYm9yomdhY3Rpb25zgqJmYWN0aW9ua2MycGEub3BlbmVkanBhcmFtZXRlcnOha2luZ3JlZGllbnRzgaJjdXJseC1zZWxmI2p1bWJmPWMycGEuYXNzZXJ0aW9ucy9jMnBhLmluZ3JlZGllbnQudjNkaGFzaFggZQXVMFRg7na7S5gRLDE/BP3wU66XTHzhR7IU79vb00akZmFjdGlvbngdY29tLmFudGhyb3BpYy5jbGF1ZGUucHJvdmlkZWRqcGFyYW1ldGVyc6F4H2NvbS5hbnRocm9waWMub3JpZ2luLWNvbmZpZGVuY2VndW5rbm93bmtkZXNjcmlwdGlvbnhmQ2xhdWRlIHByb3ZpZGVkIHRoaXMgZmlsZSBhdCB0aGUgcmVxdWVzdCBvZiBhIHVzZXIgYW5kIG1heSBoYXZlIGNyZWF0ZWQgb3IgbW9kaWZpZWQgdGhlIGZpbGUgY29udGVudHMubXNvZnR3YXJlQWdlbnShZG5hbWVmQ2xhdWRlcmFsbEFjdGlvbnNJbmNsdWRlZPUAAADIanVtYgAAAEBqdW1kY2JvcgARABCAAACqADibcRNjMnBhLmhhc2guZGF0YQAAAAAYYzJzaBjA39H1H/tt1srJ1cJVrXYAAACAY2JvcqVjYWxnZnNoYTI1NmNwYWRNAAAAAAAAAAAAAAAAAGRoYXNoWCAAP0fHkDkUhJTLuNV62GnJLdLsuqK17LoqOdo2gmt9FGRuYW1lbmp1bWJmIG1hbmlmZXN0amV4Y2x1c2lvbnOBomVzdGFydBieZmxlbmd0aBkeBAAAAj5qdW1iAAAAJ2p1bWRjMmNsABEAEIAAAKoAOJtxA2MycGEuY2xhaW0udjIAAAACD2Nib3KlY2FsZ2ZzaGEyNTZpc2lnbmF0dXJleE1zZWxmI2p1bWJmPS9jMnBhL3VybjpjMnBhOjlhMGE2MWE5LTNiZGQtNGM3Mi1iYTlhLWQ2YjM5YzA1MTY3NS9jMnBhLnNpZ25hdHVyZWppbnN0YW5jZUlEeCx4bXA6aWlkOmMzODYxYjdlLTk1ZDQtNDZhOS05ZDkzLTc3MWQ0NTllMTA4OHJjcmVhdGVkX2Fzc2VydGlvbnODomN1cmx4LXNlbGYjanVtYmY9YzJwYS5hc3NlcnRpb25zL2MycGEuaW5ncmVkaWVudC52M2RoYXNoWCBlBdUwVGDudrtLmBEsMT8E/fBTrpdMfOFHshTv29vTRqJjdXJseCpzZWxmI2p1bWJmPWMycGEuYXNzZXJ0aW9ucy9jMnBhLmFjdGlvbnMudjJkaGFzaFggtfKXKK9O0gESS4YehUES4Z+Ng3EplXfqgiYFzRtWBiqiY3VybHgpc2VsZiNqdW1iZj1jMnBhLmFzc2VydGlvbnMvYzJwYS5oYXNoLmRhdGFkaGFzaFggV/biS1doz6UGpF1g6B714XCtDddyESfqvTpY08xOyft0Y2xhaW1fZ2VuZXJhdG9yX2luZm+jZG5hbWVvQW50aHJvcGljIEZpbGVzZ3ZlcnNpb25lMS4wLjBrc3BlY1ZlcnNpb25lMi40LjAAABA4anVtYgAAAChqdW1kYzJjcwARABCAAACqADibcQNjMnBhLnNpZ25hdHVyZQAAABAIY2JvctKEWQISogEmGCFZAgowggIGMIIBjaADAgECAhRA5aAK7sI50L64g/oGQgU9Z1UTADAKBggqhkjOPQQDAzBJMRcwFQYDVQQKEw5BbnRocm9waWMsIFBCQzEuMCwGA1UEAxMlQW50aHJvcGljIENvbnRlbnQgQ3JlZGVudGlhbHMgUm9vdCBDQTAeFw0yNjA4MDcxODQzNTZaFw0yODA4MDYxOTQzNTZaMEQxFzAVBgNVBAoTDkFudGhyb3BpYywgUEJDMSkwJwYDVQQDEyBBbnRocm9waWMgQ2xhdWRlIENvbnRlbnQgU2lnbmluZzBZMBMGByqGSM49AgEGCCqGSM49AwEHA0IABJh6CmvLUBgFFNU0vUKlOVtE6djd17L5SuwX0LemFisBM3dkd/3cyjxFA3Qo5S46fX0/ihY0VZ7mfb9KF703t5OjWDBWMA4GA1UdDwEB/wQEAwIHgDAVBgNVHSUEDjAMBgorBgEEAYPoXgIBMAwGA1UdEwEB/wQCMAAwHwYDVR0jBBgwFoAUzlHiBIFOZFsj+OPEz5o+nMHXXMIwCgYIKoZIzj0EAwMDZwAwZAIwMXMdFJ4BetLLVY7ORuE9noqbbAZOZn/aArXyTwFAZfKrPzxF2vPoJNf1+UCdg1XGAjBwX1zd9WGqYkqmL5SFqw1QySjr1zJfpJM9+1rdDwSPLMOPOjKuiXjoU/pUUeG9RwmhY3BhZFkNngAAAAAAAAAAAAAAAAAAAAAAAAAAAAAAAAAAAAAAAAAAAAAAAAAAAAAAAAAAAAAAAAAAAAAAAAAAAAAAAAAAAAAAAAAAAAAAAAAAAAAAAAAAAAAAAAAAAAAAAAAAAAAAAAAAAAAAAAAAAAAAAAAAAAAAAAAAAAAAAAAAAAAAAAAAAAAAAAAAAAAAAAAAAAAAAAAAAAAAAAAAAAAAAAAAAAAAAAAAAAAAAAAAAAAAAAAAAAAAAAAAAAAAAAAAAAAAAAAAAAAAAAAAAAAAAAAAAAAAAAAAAAAAAAAAAAAAAAAAAAAAAAAAAAAAAAAAAAAAAAAAAAAAAAAAAAAAAAAAAAAAAAAAAAAAAAAAAAAAAAAAAAAAAAAAAAAAAAAAAAAAAAAAAAAAAAAAAAAAAAAAAAAAAAAAAAAAAAAAAAAAAAAAAAAAAAAAAAAAAAAAAAAAAAAAAAAAAAAAAAAAAAAAAAAAAAAAAAAAAAAAAAAAAAAAAAAAAAAAAAAAAAAAAAAAAAAAAAAAAAAAAAAAAAAAAAAAAAAAAAAAAAAAAAAAAAAAAAAAAAAAAAAAAAAAAAAAAAAAAAAAAAAAAAAAAAAAAAAAAAAAAAAAAAAAAAAAAAAAAAAAAAAAAAAAAAAAAAAAAAAAAAAAAAAAAAAAAAAAAAAAAAAAAAAAAAAAAAAAAAAAAAAAAAAAAAAAAAAAAAAAAAAAAAAAAAAAAAAAAAAAAAAAAAAAAAAAAAAAAAAAAAAAAAAAAAAAAAAAAAAAAAAAAAAAAAAAAAAAAAAAAAAAAAAAAAAAAAAAAAAAAAAAAAAAAAAAAAAAAAAAAAAAAAAAAAAAAAAAAAAAAAAAAAAAAAAAAAAAAAAAAAAAAAAAAAAAAAAAAAAAAAAAAAAAAAAAAAAAAAAAAAAAAAAAAAAAAAAAAAAAAAAAAAAAAAAAAAAAAAAAAAAAAAAAAAAAAAAAAAAAAAAAAAAAAAAAAAAAAAAAAAAAAAAAAAAAAAAAAAAAAAAAAAAAAAAAAAAAAAAAAAAAAAAAAAAAAAAAAAAAAAAAAAAAAAAAAAAAAAAAAAAAAAAAAAAAAAAAAAAAAAAAAAAAAAAAAAAAAAAAAAAAAAAAAAAAAAAAAAAAAAAAAAAAAAAAAAAAAAAAAAAAAAAAAAAAAAAAAAAAAAAAAAAAAAAAAAAAAAAAAAAAAAAAAAAAAAAAAAAAAAAAAAAAAAAAAAAAAAAAAAAAAAAAAAAAAAAAAAAAAAAAAAAAAAAAAAAAAAAAAAAAAAAAAAAAAAAAAAAAAAAAAAAAAAAAAAAAAAAAAAAAAAAAAAAAAAAAAAAAAAAAAAAAAAAAAAAAAAAAAAAAAAAAAAAAAAAAAAAAAAAAAAAAAAAAAAAAAAAAAAAAAAAAAAAAAAAAAAAAAAAAAAAAAAAAAAAAAAAAAAAAAAAAAAAAAAAAAAAAAAAAAAAAAAAAAAAAAAAAAAAAAAAAAAAAAAAAAAAAAAAAAAAAAAAAAAAAAAAAAAAAAAAAAAAAAAAAAAAAAAAAAAAAAAAAAAAAAAAAAAAAAAAAAAAAAAAAAAAAAAAAAAAAAAAAAAAAAAAAAAAAAAAAAAAAAAAAAAAAAAAAAAAAAAAAAAAAAAAAAAAAAAAAAAAAAAAAAAAAAAAAAAAAAAAAAAAAAAAAAAAAAAAAAAAAAAAAAAAAAAAAAAAAAAAAAAAAAAAAAAAAAAAAAAAAAAAAAAAAAAAAAAAAAAAAAAAAAAAAAAAAAAAAAAAAAAAAAAAAAAAAAAAAAAAAAAAAAAAAAAAAAAAAAAAAAAAAAAAAAAAAAAAAAAAAAAAAAAAAAAAAAAAAAAAAAAAAAAAAAAAAAAAAAAAAAAAAAAAAAAAAAAAAAAAAAAAAAAAAAAAAAAAAAAAAAAAAAAAAAAAAAAAAAAAAAAAAAAAAAAAAAAAAAAAAAAAAAAAAAAAAAAAAAAAAAAAAAAAAAAAAAAAAAAAAAAAAAAAAAAAAAAAAAAAAAAAAAAAAAAAAAAAAAAAAAAAAAAAAAAAAAAAAAAAAAAAAAAAAAAAAAAAAAAAAAAAAAAAAAAAAAAAAAAAAAAAAAAAAAAAAAAAAAAAAAAAAAAAAAAAAAAAAAAAAAAAAAAAAAAAAAAAAAAAAAAAAAAAAAAAAAAAAAAAAAAAAAAAAAAAAAAAAAAAAAAAAAAAAAAAAAAAAAAAAAAAAAAAAAAAAAAAAAAAAAAAAAAAAAAAAAAAAAAAAAAAAAAAAAAAAAAAAAAAAAAAAAAAAAAAAAAAAAAAAAAAAAAAAAAAAAAAAAAAAAAAAAAAAAAAAAAAAAAAAAAAAAAAAAAAAAAAAAAAAAAAAAAAAAAAAAAAAAAAAAAAAAAAAAAAAAAAAAAAAAAAAAAAAAAAAAAAAAAAAAAAAAAAAAAAAAAAAAAAAAAAAAAAAAAAAAAAAAAAAAAAAAAAAAAAAAAAAAAAAAAAAAAAAAAAAAAAAAAAAAAAAAAAAAAAAAAAAAAAAAAAAAAAAAAAAAAAAAAAAAAAAAAAAAAAAAAAAAAAAAAAAAAAAAAAAAAAAAAAAAAAAAAAAAAAAAAAAAAAAAAAAAAAAAAAAAAAAAAAAAAAAAAAAAAAAAAAAAAAAAAAAAAAAAAAAAAAAAAAAAAAAAAAAAAAAAAAAAAAAAAAAAAAAAAAAAAAAAAAAAAAAAAAAAAAAAAAAAAAAAAAAAAAAAAAAAAAAAAAAAAAAAAAAAAAAAAAAAAAAAAAAAAAAAAAAAAAAAAAAAAAAAAAAAAAAAAAAAAAAAAAAAAAAAAAAAAAAAAAAAAAAAAAAAAAAAAAAAAAAAAAAAAAAAAAAAAAAAAAAAAAAAAAAAAAAAAAAAAAAAAAAAAAAAAAAAAAAAAAAAAAAAAAAAAAAAAAAAAAAAAAAAAAAAAAAAAAAAAAAAAAAAAAAAAAAAAAAAAAAAAAAAAAAAAAAAAAAAAAAAAAAAAAAAAAAAAAAAAAAAAAAAAAAAAAAAAAAAAAAAAAAAAAAAAAAAAAAAAAAAAAAAAAAAAAAAAAAAAAAAAAAAAAAAAAAAAAAAAAAAAAAAAAAAAAAAAAAAAAAAAAAAAAAAAAAAAAAAAAAAAAAAAAAAAAAAAAAAAAAAAAAAAAAAAAAAAAAAAAAAAAAAAAAAAAAAAAAAAAAAAAAAAAAAAAAAAAAAAAAAAAAAAAAAAAAAAAAAAAAAAAAAAAAAAAAAAAAAAAAAAAAAAAAAAAAAAAAAAAAAAAAAAAAAAAAAAAAAAAAAAAAAAAAAAAAAAAAAAAAAAAAAAAAAAAAAAAAAAAAAAAAAAAAAAAAAAAAAAAAAAAAAAAAAAAAAAAAAAAAAAAAAAAAAAAAAAAAAAAAAAAAAAAAAAAAAAAAAAAAAAAAAAAAAAAAAAAAAAAAAAAAAAAAAAAAAAAAAAAAAAAAAAAAAAAAAAAAAAAAAAAAAAAAAAAAAAAAAAAAAAAAAAAAAAAAAAAAAAAAAAAAAAAAAAAAAAAAAAAAAAAAAAAAAAAAAAAAAAAAAAAAAAAAAAAAAAAAAAAAAAAAAAAAAAAAAAAAAAAAAAAAAAAAAAAAAAAAAAAAAAAAAAAAAAAAAAAAAAAAAAAAAAAAAAAAAAAAAAAAAAAAAAAAAAAAAAAAAAAAAAAAAAAAAAAAAAAAAAAAAAAAAAAAAAAAAAAAAAAAAAAAAAAAAAAAAAAAAAAAAAAAAAAAAAAAAAAAAAAAAAAAAAAAAAAAAAAAAAAAAAAAAAAAAAAAAAAAAAAAAAAAAAAAAAAAAAAAAAAAAAAAAAAAAAAAAAAAAAAAAAAAAAAAAAAAAAAAAAAAAAAAAAAAAAAAAAAAAAAAAAAAAAAAAAAAAAAAAAAAAAAAAAAAAAAAAAAAAAAAAAAAAAAAAAAAAAAAAAAAAAAAAAAAAAAAAAAAAAAAAAAAAAAAAAAAAAAAAAAAAAAAAAAAAAAAAAAAAAAAAAAAAAAAAAAAAAAAAAAAAAAAAAAAAAAAAAAAAAAAAAAAAAAAAAAAAAAAAAAAAAAAAAAAAAAAAAAAAAAAAAAAAAAAAAAAAAAAAAAAAAAAAAAAAAAAAAAAAAAAAAAAAAAAAAAAAAAAAAAAAAAAAAAAAAAAAAAAAAAAAAAAAAAAAAAAAAAAAAAAAAAAAAAAAAAAAAAAAAAAAAAAAAAAAAAAAAAAAAAAAAAAAAAAAAAAAAAAAAAAAAAAAAAAAAAAAAAAAAAAAAAAAAAAAAAAAAAAAAAAAAAAAAAAAAAAAAAAAAAAAAAAAAAAAAAAAAAAAAAAAAAAAAAAAAAAAAAAAAAAAAAAAAAAAAAAAAAAAAAAAAAAAAAAAAAAAAAAAAAAAAAAAAAAAAAAAAAAAAAAAAAAAAAAAAAAAAAAAAAAAAAAAAAAAAAAAAAAAAAAAAAAAAAAAAAAAAAAAAAAAAAAAAAAAAAAAAAAAAAAAAAAAAAAAAAAAAAAAAAAAAAAAAAAAAAAAAAAAAAAAAAAAAAAAAAAAAAAAAAAAAAAAAAAAAAAAAAAAAAAAAAAAAAAAAAAAAAAAAAAAAAAAAAAAAAAAAAAAAAAAAAAAAAAAAAAAAAAAAAAAAAAAAAAAAAAAAAAAAAAAAAAAAAAAAAAAAAAAAAAAAAAAAAAAAAAAAAAAAAAAAAAAAAAAAAAAPZYQKprLyopjxP/2t5LX0sci37z0rJcf0V6M0bVyTD8g5AnAWYqO+3l8okyTXAThcUrC3XIZI/V53YXZJaPE1T2yEo=</c2pa:manifest></metadata><g transform="translate(0 -816.5) scale(9.23)"><path d="M0 50A50 50 0 0 1 100 50Z" fill="#ffd54a"/><path d="M0.38 56.14L99.62 56.14A50 50 0 0 1 97.14 66.67L2.86 66.67A50 50 0 0 1 0.38 56.14Z" fill="#0a100c"/><path d="M5.5 72.81L94.5 72.81A50 50 0 0 1 87.27 83.33L12.73 83.33A50 50 0 0 1 5.5 72.81Z" fill="#0a100c"/><path d="M19.31 89.47L80.69 89.47A50 50 0 0 1 50 100L50 100A50 50 0 0 1 19.31 89.47Z" fill="#0a100c"/></g><g transform="translate(1278 0)"><path d="M300.6 12Q220.8 12 162.1 -22.4Q103.4 -56.8 71.3 -119.7Q39.2 -182.6 39.2 -267Q39.2 -351.4 71.3 -413.8Q103.4 -476.2 161.5 -511.1Q219.6 -546 298.2 -546Q374.4 -546 431.6 -511.9Q488.8 -477.8 520.1 -413.8Q551.4 -349.8 551.4 -260V-231.4H172Q175.8 -160.8 210.3 -125.6Q244.8 -90.4 302.2 -90.4Q345 -90.4 373.3 -109.5Q401.6 -128.6 413 -163.8L543.8 -155.6Q522.4 -78.2 457.7 -33.1Q393 12 300.6 12ZM172 -317.4H418.6Q414.6 -382.4 381.9 -413.8Q349.2 -445.2 298.2 -445.2Q246.8 -445.2 213.3 -412.3Q179.8 -379.4 172 -317.4Z" fill="#0a100c"/><path d="M661.4 0V-710H789.4V-292.6L1008.2 -534H1165.8L957.2 -311.8L1172.8 0H1029.2L873.4 -236L789.4 -146.8V0Z" fill="#0a100c"/><path d="M1289.4 0V-534H1417.4V0ZM1287 -605.4V-718.6H1419.8V-605.4Z" fill="#0a100c"/><path d="M1527.2 0V-139.8H1673.4V0Z" fill="#0a100c"/><path d="M1911.4 0Q1852.6 0 1818 -30Q1783.4 -60 1783.4 -126.4V-710H1911.4V-139.4Q1911.4 -118.6 1921.7 -108.9Q1932 -99.2 1951.2 -99.2H1990.4V0Z" fill="#0a100c"/><path d="M2234.6 12Q2151.4 12 2100.3 -26.4Q2049.2 -64.8 2049.2 -133.6Q2049.2 -203.2 2092.2 -242Q2135.2 -280.8 2222.6 -298L2400.2 -332.6Q2400.2 -389.6 2374.1 -418.2Q2348 -446.8 2297.4 -446.8Q2250.8 -446.8 2224.2 -425.5Q2197.6 -404.2 2188.4 -363.8L2058.2 -370.4Q2073.6 -454.6 2135.7 -500.3Q2197.8 -546 2297.4 -546Q2411.4 -546 2469.8 -488.7Q2528.2 -431.4 2528.2 -324.4V-129.8Q2528.2 -108.6 2535.5 -100.9Q2542.8 -93.2 2557.8 -93.2H2574.8V0Q2568.8 1.8 2555.4 3.1Q2542 4.4 2528.4 4.4Q2495.2 4.4 2469.3 -6.5Q2443.4 -17.4 2429 -43.5Q2414.6 -69.6 2414.6 -115.6L2426.2 -108Q2417.6 -72.8 2391.4 -45.5Q2365.2 -18.2 2325 -3.1Q2284.8 12 2234.6 12ZM2261 -81.2Q2303.6 -81.2 2334.7 -97.9Q2365.8 -114.6 2383 -144.9Q2400.2 -175.2 2400.2 -215.6V-245.6L2261.8 -217.6Q2219.4 -209.2 2200.5 -191.5Q2181.6 -173.8 2181.6 -145.6Q2181.6 -115 2202.3 -98.1Q2223 -81.2 2261 -81.2Z" fill="#0a100c"/><path d="M2947 12Q2891.2 12 2849.4 -12.1Q2807.6 -36.2 2784.6 -79.2L2781.6 0H2660.4V-710H2788.4V-458.4Q2809.6 -494.6 2850.8 -520.3Q2892 -546 2947 -546Q3015.8 -546 3066.2 -511.6Q3116.6 -477.2 3144.2 -414.6Q3171.8 -352 3171.8 -267Q3171.8 -182 3144.2 -119.4Q3116.6 -56.8 3066.2 -22.4Q3015.8 12 2947 12ZM2917.6 -91.6Q2973 -91.6 3006.2 -138.2Q3039.4 -184.8 3039.4 -267Q3039.4 -349.8 3006.6 -396.1Q2973.8 -442.4 2918.8 -442.4Q2877.8 -442.4 2848.4 -421.7Q2819 -401 2803.7 -361.8Q2788.4 -322.6 2788.4 -267Q2788.4 -213 2803.7 -173.5Q2819 -134 2848.1 -112.8Q2877.2 -91.6 2917.6 -91.6Z" fill="#0a100c"/><path d="M3498.4 12Q3416.6 12 3363.1 -11.2Q3309.6 -34.4 3281.9 -75.1Q3254.2 -115.8 3250.2 -168.2L3381 -173.8Q3388.2 -132.2 3414.9 -108.9Q3441.6 -85.6 3498.8 -85.6Q3543.6 -85.6 3567.5 -100.3Q3591.4 -115 3591.4 -146Q3591.4 -164.2 3582.9 -176.2Q3574.4 -188.2 3549.8 -197.3Q3525.2 -206.4 3477.6 -214.8Q3396.8 -229.2 3351 -249.8Q3305.2 -270.4 3286.6 -301.4Q3268 -332.4 3268 -377.6Q3268 -452.6 3325.5 -499.3Q3383 -546 3494.2 -546Q3571.4 -546 3620.7 -521.7Q3670 -497.4 3695.4 -456.6Q3720.8 -415.8 3725 -366.4L3595.4 -360.4Q3594.2 -385.4 3583 -405.4Q3571.8 -425.4 3549.8 -436.9Q3527.8 -448.4 3492.2 -448.4Q3446.8 -448.4 3423.6 -430.2Q3400.4 -412 3400.4 -382.4Q3400.4 -360.8 3409.7 -346.9Q3419 -333 3442.1 -324.3Q3465.2 -315.6 3504.8 -309.2Q3587.2 -297 3635.2 -276.2Q3683.2 -255.4 3703.5 -223.9Q3723.8 -192.4 3723.8 -147.6Q3723.8 -71 3662.5 -29.5Q3601.2 12 3498.4 12Z" fill="#0a100c"/></g></svg>